<svg xmlns="http://www.w3.org/2000/svg" width="40" height="40" fill="none"><circle cx="20" cy="20" r="19.5" fill="#FBFBFB" stroke="#4777F5"/><path fill="#4777F5" d="M14.2 20.38c0-1.45.3-2.6.86-3.43.57-.85 1.37-1.27 2.42-1.27 1.05 0 1.86.42 2.43 1.27.6.84.88 1.98.88 3.43 0 1.44-.28 2.6-.85 3.44-.56.86-1.38 1.3-2.45 1.3-1.05 0-1.85-.44-2.42-1.3-.57-.85-.86-2-.86-3.44zm2.14-2.35c-.28.54-.42 1.32-.42 2.35s.14 1.82.4 2.38c.3.55.67.83 1.16.83.5 0 .9-.3 1.16-.84.28-.55.42-1.34.42-2.38 0-1.04-.14-1.82-.43-2.37-.28-.53-.67-.8-1.15-.8-.48 0-.86.28-1.14.83zm5.15 1v-1.76l2.42-1.43h1.48V25h-1.67v-7.34l-2.24 1.36z"/></svg>