<svg xmlns="http://www.w3.org/2000/svg" width="40" height="40" fill="none"><circle cx="20" cy="20" r="19.5" fill="#FBFBFB" stroke="#4777F5"/><path fill="#4777F5" d="M13.22 20.38c0-1.45.3-2.6.86-3.43.57-.85 1.38-1.27 2.42-1.27 1.05 0 1.87.42 2.44 1.27.57.84.86 1.98.86 3.43 0 1.44-.28 2.6-.85 3.44-.56.86-1.38 1.3-2.45 1.3-1.04 0-1.85-.44-2.42-1.3-.57-.85-.86-2-.86-3.44zm2.15-2.35c-.28.54-.42 1.32-.42 2.35s.13 1.82.4 2.38c.28.55.67.83 1.15.83.5 0 .9-.3 1.16-.84.28-.55.42-1.34.42-2.38 0-1.04-.14-1.82-.43-2.37-.28-.53-.66-.8-1.15-.8-.48 0-.85.28-1.13.83zm7.75 5.53h3.65V25H20.8v-1.34c1.1-.78 2.03-1.6 2.82-2.48.8-.9 1.2-1.7 1.2-2.4 0-.46-.14-.83-.4-1.1-.28-.25-.67-.38-1.2-.38-.76 0-1.5.3-2.2.87v-1.64c.3-.23.68-.42 1.14-.57.45-.15.9-.23 1.37-.23.9 0 1.62.25 2.18.74.58.5.87 1.18.87 2.06 0 1.66-1.15 3.34-3.45 5.03z"/></svg>