<svg xmlns="http://www.w3.org/2000/svg" width="40" height="40" fill="none"><circle cx="20" cy="20" r="19.5" fill="#FBFBFB" stroke="#4777F5"/><path fill="#4777F5" d="M13.38 20.38c0-1.45.3-2.6.86-3.43.56-.85 1.37-1.27 2.42-1.27 1.05 0 1.86.42 2.43 1.27.57.84.86 1.98.86 3.43 0 1.44-.28 2.6-.85 3.44-.55.86-1.37 1.3-2.44 1.3-1.05 0-1.86-.44-2.42-1.3-.57-.85-.86-2-.86-3.44zm2.14-2.35c-.28.54-.42 1.32-.42 2.35s.14 1.82.4 2.38c.3.55.67.83 1.16.83.5 0 .9-.3 1.16-.84.28-.55.42-1.34.42-2.38 0-1.04-.15-1.82-.43-2.37-.27-.53-.66-.8-1.14-.8-.48 0-.86.28-1.14.83zm5.77-.2v-1.58c.62-.35 1.3-.52 2-.52.95 0 1.7.24 2.25.7.55.47.82 1.07.82 1.8 0 1.05-.48 1.77-1.44 2.15.52.13.93.38 1.22.74.3.36.43.8.43 1.36 0 .77-.28 1.4-.85 1.88-.56.47-1.35.7-2.37.7-.94 0-1.74-.14-2.4-.45v-1.63c.72.4 1.5.6 2.3.6.5 0 .9-.13 1.17-.36.3-.23.43-.54.43-.92 0-.8-.66-1.2-1.97-1.2h-.55v-1.43h.54c.48 0 .9-.1 1.23-.32.34-.2.5-.52.5-.9 0-.8-.47-1.2-1.44-1.2-.64 0-1.28.2-1.9.6z"/></svg>