<svg xmlns="http://www.w3.org/2000/svg" width="94" height="14" fill="none"><path fill="#19191B" d="M7.7 1.4h2.14l1.23 4.47c.26.93.5 1.8.7 2.62.2.8.35 1.36.42 1.7l.1.5c.17-1.1.5-2.73 1.05-4.85l1.16-4.63h2.95l-3.37 12.63h-3.22l-1.1-4C9.5 8.9 9.28 8.1 9.1 7.43c-.16-.66-.26-1.1-.3-1.27l-.03-.28c-.04.5-.37 1.84-1 4L6.6 13.84H3.38L0 1.22h3.03L4.2 5.87c.24 1 .44 1.9.6 2.7.17.8.27 1.37.3 1.68l.08.45c.2-.97.64-2.58 1.27-4.83L7.7 1.4zM22.17 14c-1.48 0-2.63-.44-3.44-1.33-.8-.9-1.2-2.05-1.2-3.45 0-1.46.4-2.66 1.26-3.6.83-.95 1.96-1.42 3.37-1.42 1.47 0 2.6.45 3.42 1.37.8.9 1.2 2.07 1.2 3.48 0 1.44-.4 2.63-1.23 3.56-.8.94-1.94 1.4-3.4 1.4zm-.02-7.65c-.6 0-1.04.26-1.34.77-.3.5-.44 1.18-.44 2 0 .8.15 1.47.45 2 .32.5.78.76 1.4.76.6 0 1.03-.25 1.32-.75.3-.5.45-1.17.45-1.98 0-1.87-.6-2.8-1.82-2.8zM31.85 14c-1.5 0-2.63-.44-3.45-1.33-.8-.9-1.2-2.05-1.2-3.45 0-1.46.4-2.66 1.26-3.6.85-.95 1.98-1.42 3.4-1.42 1.46 0 2.6.45 3.4 1.37.82.9 1.22 2.07 1.22 3.48 0 1.44-.4 2.63-1.23 3.56-.8.94-1.95 1.4-3.4 1.4zm-.02-7.65c-.6 0-1.05.26-1.35.77-.3.5-.45 1.18-.45 2 0 .8.15 1.47.45 2 .3.5.77.76 1.38.76.6 0 1.05-.25 1.33-.75.3-.5.44-1.17.44-1.98 0-1.87-.6-2.8-1.8-2.8zM44.7 1.78v2.7c-1-.6-2.06-.88-3.14-.88-.5 0-.86.1-1.12.3-.25.2-.38.45-.38.77 0 .3.16.6.47.84.3.25.78.5 1.4.78.4.17.7.33.95.47.27.12.56.3.88.54.34.22.6.46.8.72.2.25.36.56.5.94.13.37.2.78.2 1.22 0 1.13-.42 2.06-1.25 2.77-.83.7-1.94 1.05-3.32 1.05-1.48 0-2.7-.26-3.63-.8v-2.9c1.14.83 2.34 1.24 3.63 1.24.43 0 .8-.1 1.08-.33.3-.23.43-.54.43-.9 0-.14-.03-.25-.06-.37-.04-.1-.1-.22-.2-.32s-.2-.17-.3-.23c-.1-.07-.23-.16-.42-.24-.17-.1-.32-.18-.45-.25-.12-.06-.3-.15-.56-.26-.23-.1-.42-.2-.57-.26-.8-.38-1.46-.84-1.96-1.4-.5-.54-.73-1.27-.73-2.18 0-1.1.4-1.96 1.2-2.62.8-.68 1.9-1.02 3.3-1.02 1.26 0 2.35.22 3.26.64zM49.16 6.35v4.37c0 .34.1.6.28.77.2.16.46.25.77.25.5 0 .95-.12 1.34-.37v2.26c-.46.2-1.1.3-1.87.3-2.16 0-3.24-1.08-3.24-3.24V6.35h-1.36v-2h1.36V2.1h2.73v2.25h2.2v2h-2.2zM55 4.35V6.1c.17-.54.45-.98.85-1.3.4-.34.9-.5 1.42-.5.3 0 .54.02.7.07v2.58c-.3-.13-.63-.2-1.02-.2-.58 0-1.06.22-1.42.65-.36.43-.54 1-.54 1.7v4.75h-2.74l.02-9.5h2.7zM62.45 14c-1.48 0-2.63-.44-3.44-1.33-.8-.9-1.2-2.05-1.2-3.45 0-1.46.42-2.66 1.27-3.6.85-.95 1.98-1.42 3.38-1.42 1.47 0 2.62.45 3.43 1.37.8.9 1.2 2.07 1.2 3.48 0 1.44-.4 2.63-1.22 3.56-.8.94-1.95 1.4-3.4 1.4zm0-7.65c-.6 0-1.06.26-1.36.77-.3.5-.46 1.18-.46 2 0 .8.15 1.47.45 2 .3.5.76.76 1.37.76.6 0 1.04-.25 1.33-.75.3-.5.45-1.17.45-1.98 0-1.87-.6-2.8-1.8-2.8zM68.03 13.85v-9.5h2.73v9.5h-2.73zm.25-11.13c-.32-.3-.47-.7-.47-1.13 0-.44.16-.82.48-1.13.3-.3.68-.47 1.12-.47.43 0 .8.16 1.12.47.3.3.47.7.47 1.12 0 .43-.17.8-.48 1.12-.3.3-.7.47-1.12.47-.44 0-.8-.17-1.12-.48zM76.53 11.68c.62 0 1.13-.25 1.5-.73.4-.5.6-1.14.6-1.95 0-.8-.22-1.4-.64-1.84-.42-.44-.92-.66-1.5-.66-.56 0-1.05.23-1.45.7-.38.46-.58 1.1-.58 1.93 0 .76.2 1.38.6 1.85.4.46.9.7 1.46.7zM78.63.6h2.72v13.25h-2.73v-1.48c-.63 1.06-1.58 1.6-2.84 1.6-1.23 0-2.22-.5-2.97-1.45-.73-.96-1.1-2.1-1.1-3.45 0-1.5.4-2.68 1.16-3.54.78-.86 1.76-1.3 2.94-1.3 1.23 0 2.18.53 2.82 1.58V.6z"/><path fill="#4777F5" d="M89.66 11.53H94v2.32h-8.15v-2.12c1.34-.92 2.53-1.95 3.55-3.07 1.03-1.13 1.55-2.12 1.55-2.98 0-.53-.15-.94-.47-1.24-.3-.3-.78-.47-1.42-.47-1.06 0-2.06.4-3 1.18V2.5c.4-.3.94-.54 1.6-.76.66-.2 1.3-.32 1.95-.32 1.28 0 2.3.34 3.04 1.02.76.66 1.14 1.6 1.14 2.8 0 2.15-1.38 4.25-4.12 6.3z"/></svg>