<?xml version="1.0" encoding="UTF-8"?>
<svg xmlns="http://www.w3.org/2000/svg" width="54" height="54" viewBox="0 0 54 54" fill="none">
  <path d="M45.3922 33.6746C47.6754 30.2477 49.0065 26.1488 49.0065 21.7476C49.0065 9.75586 39.1343 0 27 0C14.8657 0 4.99387 9.75586 4.99387 21.7476C4.99387 26.1488 6.32498 30.2477 8.60785 33.6746L0 46.0808L9.84975 44.266L11.6865 54L19.8041 42.3C22.0603 43.0737 24.4812 43.4951 27 43.4951C29.5192 43.4951 31.9401 43.0737 34.1959 42.3L42.3139 54L44.1502 44.266L54 46.0808L45.3922 33.6746ZM13.427 45.8633L12.4253 40.5536L7.05287 41.544L10.6781 36.3187C12.4144 38.2164 14.4843 39.8099 16.7946 41.0105L13.427 45.8633ZM8.21431 21.7476C8.21431 11.5109 16.6416 3.1826 27 3.1826C37.3588 3.1826 45.7861 11.5109 45.7861 21.7476C45.7861 31.9846 37.3588 40.313 27 40.313C16.6416 40.313 8.21431 31.9846 8.21431 21.7476ZM41.5747 40.5536L40.573 45.8633L37.2058 41.0105C39.5162 39.8099 41.586 38.2164 43.3223 36.3187L46.9475 41.5436L41.5747 40.5536Z" fill="#4777F5"></path>
  <path d="M23.0771 26.5237L17.841 21.3496L15.564 23.5999L23.0771 31.0247L38.4364 15.8463L36.1594 13.596L23.0771 26.5237Z" fill="#4777F5"></path>
</svg>
