<?xml version="1.0" encoding="UTF-8"?>
<svg xmlns="http://www.w3.org/2000/svg" width="54" height="36" viewBox="0 0 54 36" fill="none">
  <path d="M54 16.3535L47.9092 5.87102H35.1915V0H0V3.45354H32.0275V27.7434H17.1304C16.4346 24.9784 14.1126 22.9404 11.3614 22.9404C8.61012 22.9404 6.28816 24.9784 5.59273 27.7434H1.58203V31.197H5.59273C6.28816 33.9621 8.61053 36 11.3614 36C14.1126 36 16.4346 33.9621 17.13 31.197H36.8696C37.5654 33.9621 39.8874 36 42.6382 36C45.3895 36 47.7114 33.9621 48.4069 31.197H54V16.3535ZM11.3614 32.5465C9.80736 32.5465 8.54297 31.1664 8.54297 29.4702C8.54297 27.774 9.80736 26.3939 11.3614 26.3939C12.9158 26.3939 14.1802 27.774 14.1802 29.4702C14.1802 31.1664 12.9158 32.5465 11.3614 32.5465ZM42.6386 32.5465C41.0842 32.5465 39.8198 31.1664 39.8198 29.4702C39.8198 27.774 41.0842 26.3939 42.6386 26.3939C44.1926 26.3939 45.457 27.774 45.457 29.4702C45.457 31.1664 44.1926 32.5465 42.6386 32.5465ZM50.8359 27.7434H48.4073C47.7118 24.9784 45.3895 22.9404 42.6386 22.9404C39.8874 22.9404 37.5654 24.9784 36.8696 27.7434H35.1911V9.32456H46.1689L50.8359 17.3563V27.7434Z" fill="#4777F5"></path>
  <path d="M0 5.87102H11.1933V9.32456H0V5.87102Z" fill="#4777F5"></path>
  <path d="M4.0144 17.2884H15.2073V20.7419H4.0144V17.2884Z" fill="#4777F5"></path>
  <path d="M2.0072 11.0702H13.2001V14.5238H2.0072V11.0702Z" fill="#4777F5"></path>
</svg>
