<?xml version="1.0" encoding="UTF-8"?>
<svg xmlns="http://www.w3.org/2000/svg" width="54" height="50" viewBox="0 0 54 50" fill="none">
  <path d="M48.35 16.672C45.3948 6.79874 36.7682 0 27 0C17.2318 0 8.60559 6.79874 5.64999 16.672C2.43649 17.3301 0 20.3588 0 23.9865C0 27.6138 2.43649 30.6424 5.64999 31.3006C6.88637 35.4304 9.142 39.1133 12.2204 42.0074C15.3684 44.9669 19.1694 46.9013 23.2625 47.6384C23.9913 49.0451 25.3932 50 27 50C29.3553 50 31.2715 47.9496 31.2715 45.4293C31.2715 42.909 29.3553 40.8586 27 40.8586C25.0703 40.8586 23.4363 42.2354 22.9081 44.1187C19.7313 43.3816 16.7856 41.7923 14.3087 39.4638C11.9571 37.2529 10.1637 34.5078 9.04889 31.435H10.5238V16.5379H9.04889C11.8932 8.69395 19.0013 3.38571 27 3.38571C34.9991 3.38571 42.1068 8.69395 44.9511 16.5379H43.4762V31.435H47.0391C50.8775 31.435 54 28.0934 54 23.9865C54 20.3588 51.5635 17.3301 48.35 16.672ZM27 44.2443C27.6106 44.2443 28.1074 44.7755 28.1074 45.4293C28.1074 46.0826 27.6106 46.6143 27 46.6143C26.3894 46.6143 25.8926 46.0826 25.8926 45.4293C25.8926 44.7755 26.3894 44.2443 27 44.2443ZM3.16406 23.9865C3.16406 21.7461 4.86722 19.9236 6.96094 19.9236H7.35974V28.0493H6.96094C4.86722 28.0493 3.16406 26.2264 3.16406 23.9865ZM47.0391 28.0493H46.6403V19.9236H47.0391C49.1328 19.9236 50.8359 21.7461 50.8359 23.9865C50.8359 26.2269 49.1328 28.0493 47.0391 28.0493Z" fill="#4777F5"></path>
  <path d="M27 12C20.3831 12 15 17.1589 15 23.5002C15 29.8411 20.3831 35 27 35C33.6169 35 39 29.8411 39 23.5002C39 17.1589 33.6169 12 27 12ZM27 32.5654C21.7839 32.5654 17.5404 28.4989 17.5404 23.5002C17.5404 18.5014 21.7839 14.4346 27 14.4346C32.2161 14.4346 36.4596 18.5014 36.4596 23.5002C36.4596 28.4986 32.2161 32.5654 27 32.5654Z" fill="#4777F5"></path>
  <path d="M27 28.5243C25.1527 28.5243 23.6496 27.1091 23.6496 25.3695H21.7059C21.7059 28.1184 24.0809 30.3547 27 30.3547C29.9191 30.3547 32.2941 28.1184 32.2941 25.3695H30.3504C30.3504 27.1091 28.8473 28.5243 27 28.5243Z" fill="#4777F5"></path>
</svg>
